<?xml version="1.0" encoding="UTF-8"?>
<svg id="Layer_2" data-name="Layer 2" xmlns="http://www.w3.org/2000/svg" viewBox="0 0 151.08 158.84">
  <defs>
    <style>
      .cls-1 {
        fill: #fff;
      }
    </style>
  </defs>
  <g id="_10" data-name="10">
    <g>
      <path class="cls-1" d="M75.54,158.84c-1.64,0-3.28-.53-4.65-1.6L2.92,104.35c-1.86-1.45-2.92-3.62-2.92-5.98v-14.4c0-1.86.68-3.65,1.92-5.04L69.88,2.54c1.44-1.61,3.5-2.54,5.66-2.54s4.22.93,5.66,2.54l67.97,76.4c1.24,1.39,1.92,3.18,1.92,5.04v14.4c0,2.35-1.07,4.53-2.92,5.98l-67.97,52.89c-1.37,1.07-3.01,1.6-4.65,1.6ZM73.66,5.9L5.69,82.29c-.41.46-.64,1.06-.64,1.68v14.4c0,.79.35,1.51.97,1.99l67.97,52.9c.91.71,2.19.71,3.1,0l67.97-52.89c.62-.48.97-1.21.97-1.99v-14.4c0-.62-.23-1.21-.64-1.68L77.43,5.9c-.96-1.08-2.81-1.08-3.77,0Z"/>
      <path class="cls-1" d="M143.29,99.35l-21.73,5.18L77.07,7.64l41.76,98.42c.25.6.72,1.08,1.31,1.35.63.29,1.36.31,2.01.06l21.14-8.13Z"/>
      <polygon class="cls-1" points="75.54 129.7 36.53 109.76 74.04 132.41 75.54 151.14 77.05 132.41 115.19 109.41 75.54 129.7"/>
      <path class="cls-1" d="M73.91,7.82L29.51,104.53l-21.71-5.08,21.13,8.03c.65.25,1.37.22,2-.07.59-.27,1.06-.75,1.31-1.35L73.91,7.82Z"/>
      <path class="cls-1" d="M81.13,97.72c-2.79,2.27-4.74,3.41-5.86,3.41s-3.04-1.09-5.77-3.27c-2.73-2.18-4.09-3.79-4.09-4.82s.79-2.18,2.36-3.36l3.64-2.73-3.27-2.68c-1.45-1.18-2.18-2.21-2.18-3.09s1.32-2.39,3.95-4.64c2.7-2.24,4.48-3.36,5.36-3.36,1.03,0,2.85,1.11,5.46,3.32,2.64,2.24,3.95,3.8,3.95,4.68,0,1.42-3.08,3.81-4.77,5.27,0,.75,5.41,3.14,5.41,6.23,0,1.03-1.39,2.71-4.18,5.04ZM73.31,88.44c-.33,0-.88.41-1.64,1.23-.73.73-1.12,1.29-1.18,1.68,0,.64,1.03,1.67,3.09,3.09l4,2.68c.27,0,.77-.36,1.5-1.09.76-.73,1.14-1.24,1.14-1.55,0-.94-6.4-6.05-6.91-6.05ZM76.85,79.58c-1.97-1.76-3.15-2.64-3.54-2.64-.24,0-.68.36-1.32,1.09-.64.73-.95,1.23-.95,1.5,0,.51,6.09,5.13,6.91,5.64,1.47-1.65,1.95-2.12,1.95-2.5,0-.33-1.02-1.36-3.05-3.09Z"/>
    </g>
  </g>
</svg>