<?xml version="1.0" encoding="UTF-8"?>
<svg id="Layer_2" data-name="Layer 2" xmlns="http://www.w3.org/2000/svg" viewBox="0 0 151.09 158.84">
  <defs>
    <style>
      .cls-1 {
        fill: #fff;
      }
    </style>
  </defs>
  <g id="_10" data-name="10">
    <g>
      <path class="cls-1" d="M75.54,158.84c-1.64,0-3.28-.53-4.65-1.6L2.92,104.35c-1.86-1.45-2.92-3.63-2.92-5.98v-14.4c0-1.86.68-3.65,1.92-5.04L69.88,2.54c1.44-1.61,3.5-2.54,5.66-2.54s4.22.93,5.66,2.54l67.97,76.4c1.24,1.39,1.92,3.17,1.92,5.04v14.4c0,2.35-1.07,4.53-2.92,5.98l-67.97,52.89c-1.37,1.07-3.01,1.6-4.65,1.6ZM75.54,5.05c-.72,0-1.41.31-1.89.85L5.69,82.29c-.41.46-.64,1.06-.64,1.68v14.4c0,.78.36,1.51.97,1.99l67.97,52.9c.91.71,2.19.71,3.1,0l67.97-52.89c.62-.48.97-1.21.97-1.99v-14.4c0-.62-.23-1.21-.64-1.68L77.43,5.9c-.48-.54-1.17-.85-1.89-.85Z"/>
      <path class="cls-1" d="M143.29,99.35l-21.73,5.18L77.07,7.64l41.76,98.42c.25.6.72,1.08,1.31,1.35.63.29,1.36.31,2.01.06l21.14-8.13Z"/>
      <polygon class="cls-1" points="75.54 129.7 36.53 109.76 74.04 132.41 75.54 151.14 77.05 132.41 115.19 109.41 75.54 129.7"/>
      <path class="cls-1" d="M73.91,7.82L29.51,104.53l-21.71-5.08,21.13,8.03c.65.25,1.37.22,2-.07.59-.27,1.06-.75,1.31-1.35L73.91,7.82Z"/>
      <path class="cls-1" d="M71.66,100.44h-5.05v-.55l14.86-22.14c-1.5-.36-1.47-.23-6.91,0-2.04.09-4.13.44-5.79,1.54-.81.54-1.67,1.32-2.57,1.32v-1.18c0-.24.15-.56.95-2.18l.64-2.64c.21-.88.71-1.45,1.5-1.68.71-.21,3.91-.28,16.36-.36.67,0,1,.23,1,.68,0,.51-14.07,26.45-15,27.18Z"/>
    </g>
  </g>
</svg>