<?xml version="1.0" encoding="UTF-8"?>
<svg id="Layer_2" data-name="Layer 2" xmlns="http://www.w3.org/2000/svg" viewBox="0 0 151.09 158.84">
  <defs>
    <style>
      .cls-1 {
        fill: #fff;
      }
    </style>
  </defs>
  <g id="_10" data-name="10">
    <g>
      <path class="cls-1" d="M75.54,158.84c-1.64,0-3.28-.53-4.65-1.6L2.92,104.34c-1.86-1.45-2.92-3.63-2.92-5.98v-14.4c0-1.86.68-3.65,1.92-5.04L69.88,2.54c1.44-1.62,3.5-2.54,5.66-2.54s4.22.93,5.66,2.54l67.97,76.4c1.24,1.39,1.92,3.18,1.92,5.04v14.4c0,2.35-1.07,4.53-2.92,5.98l-67.97,52.89c-1.37,1.07-3.01,1.6-4.65,1.6ZM75.54,5.05c-.72,0-1.41.31-1.89.85L5.69,82.29c-.41.46-.64,1.06-.64,1.68v14.4c0,.77.36,1.52.97,1.99l67.97,52.9c.91.71,2.19.71,3.1,0l67.97-52.89c.62-.48.97-1.21.97-1.99v-14.4c0-.62-.23-1.21-.64-1.68L77.43,5.9c-.48-.54-1.17-.85-1.89-.85Z"/>
      <path class="cls-1" d="M143.29,99.35l-21.73,5.18L77.07,7.64l41.76,98.42c.25.6.72,1.08,1.31,1.35.63.29,1.36.31,2.01.06l21.14-8.13Z"/>
      <polygon class="cls-1" points="75.54 129.7 36.53 109.76 74.04 132.41 75.54 151.14 77.05 132.41 115.19 109.41 75.54 129.7"/>
      <path class="cls-1" d="M73.91,7.82L29.51,104.53l-21.71-5.08,21.13,8.03c.65.25,1.37.22,2-.07.59-.27,1.06-.75,1.31-1.35L73.91,7.82Z"/>
      <path class="cls-1" d="M69.83,98.25c-.91.82-2.32,1.73-4.23,2.73-2.3,1.21-3.79,1.82-4.46,1.82-.42-.21-.65-.53-.68-.95.12-.18.21-.29.27-.32,2.9-1.99,4.06-2.49,5.77-4.82.64-.87,1.2-1.77,1.68-2.73l1.09-3.18h-.41c-.15,0-1.08.67-2.77,2-1.64,1.33-2.64,2.02-3,2.05-1.55,0-3.08-1.08-4.59-3.23-1.36-1.94-2.05-3.76-2.05-5.45,0-1.91,1.12-4.35,3.36-7.32,2.36-3.09,4.45-4.64,6.27-4.64.15,0,.71.36,1.68,1.09,7.33,5.33,9.33,16.36,2.04,22.95ZM64.47,79.25c-.55-.48-.94-.76-1.18-.82-.58,0-1.18.65-1.82,1.95-.55,1.15-.82,2.08-.82,2.77,0,3.03,1.26,5.11,3.73,6.36.58.29.97.45,1.18.45.75,0,3.73-1.18,3.73-1.82.06-3.06-1.55-6.02-4.82-8.91Z"/>
      <path class="cls-1" d="M92.15,97.2c-.9,1.16-2.8,2.56-5.68,4.23l-1.05.86c-.42.3-.83.47-1.23.5-2.52,0-4.59-1.88-6.23-5.64-1.3-3-1.95-5.94-1.95-8.82,0-5.33,2.55-9.45,7.59-12.45,1-.6,1.7-.94,2.09-1,2.24,0,4.27,2.09,6.09,6.27,1.51,3.54,2.27,6.58,2.27,9.09,0,2.97-.62,5.3-1.91,6.95ZM88.74,85.25c-1.91-2.33-3.91-3.5-6-3.5-2.59,0-4.32,1.98-4.32,4.68,0,2.03.94,4.15,2.82,6.36,1.85,2.18,3.8,3.27,5.86,3.27,2.91,0,4.36-1.42,4.36-4.27,0-2.12-.91-4.3-2.73-6.54Z"/>
    </g>
  </g>
</svg>