<?xml version="1.0" encoding="UTF-8"?>
<svg id="Layer_2" data-name="Layer 2" xmlns="http://www.w3.org/2000/svg" viewBox="0 0 143.72 150.35">
  <defs>
    <style>
      .cls-1 {
        fill: #fff;
      }
    </style>
  </defs>
  <g id="_12" data-name="12">
    <g>
      <path class="cls-1" d="M71.86,150.35c-.79,0-1.58-.12-2.34-.37l-39.73-12.91c-1.53-.5-2.84-1.45-3.79-2.75L1.44,100.51C.5,99.21,0,97.67,0,96.06v-41.78C0,52.67.5,51.13,1.45,49.83L26.01,16.03c.95-1.3,2.26-2.25,3.79-2.75L69.52.37c1.53-.5,3.15-.5,4.68,0l39.73,12.92c1.53.5,2.84,1.45,3.79,2.75l24.56,33.8c.94,1.3,1.44,2.84,1.44,4.45v41.78c0,1.61-.5,3.15-1.45,4.45l-24.56,33.79c-.95,1.3-2.26,2.25-3.79,2.75l-39.73,12.91c-.77.25-1.55.37-2.34.37ZM71.87,5.05c-.26,0-.53.04-.78.12l-39.73,12.91c-.51.17-.95.48-1.26.92L5.54,52.8c-.32.44-.48.95-.48,1.48v41.78c0,.54.17,1.05.48,1.49l24.56,33.79c.32.43.75.75,1.26.92l39.73,12.91c.51.17,1.05.17,1.56,0l39.73-12.91c.51-.17.95-.48,1.26-.92l24.56-33.79c.31-.43.49-.96.49-1.49v-41.78c0-.54-.17-1.05-.48-1.48l-24.56-33.8c-.32-.43-.75-.75-1.26-.92l-39.73-12.92c-.25-.08-.52-.12-.78-.12Z"/>
      <path class="cls-1" d="M99.95,106.7l16.26-44.03,20.73-8.65-21.94,5.21c-.57.14-1.09.43-1.5.84-.38.38-.66.86-.81,1.38l-12.74,45.24Z"/>
      <path class="cls-1" d="M100.35,111.28c-.3-.5-.74-.9-1.26-1.17-.48-.25-1.02-.36-1.56-.34l-47.08,1.86,47.01,1.86,14.62,17.05-11.73-19.26Z"/>
      <path class="cls-1" d="M66.78,33.81l-38.14,25.4-21.86-5.19,20.82,8.68c.54.22,1.13.3,1.71.2.53-.08,1.04-.31,1.46-.64l36.01-28.45Z"/>
      <path class="cls-1" d="M30.51,65.86l12.82,45.49-11.98,19.58,14.98-17.51c.38-.44.63-.98.72-1.56.08-.53.03-1.08-.16-1.59l-16.38-44.41Z"/>
      <path class="cls-1" d="M70.05,29.23c-.05.58.07,1.17.33,1.69.25.48.61.89,1.06,1.19l38.51,25.68-36.26-28.65-1.82-22.4-1.82,22.48Z"/>
      <path class="cls-1" d="M76.75,86.52c-2.58,2.67-4.76,4-6.55,4-1.55,0-3.5-1.53-5.86-4.59-2.24-2.97-3.36-5.29-3.36-6.95v-3.68c0-4.33,4.98-9.02,8.59-11.41,2.33-1.58,4.38-2.36,6.14-2.36l.82.77v.5c-1.67.55-3.71,2.02-6.14,4.41-2.73,2.7-4.03,4.79-3.91,6.27l.05.55c.92-.28,5.95-4.14,6.41-4.14,1.94,0,3.76,1.03,5.45,3.09,1.58,1.94,2.36,3.94,2.36,6,0,2.24-1.33,4.76-4,7.54ZM74.57,76.97c-1.09-1.51-2.49-2.27-4.18-2.27-.91,0-1.71.21-2.41.64-.85.49-1.27,1.15-1.27,2,0,3.23,2.67,6.52,5.23,8.36.67.48,1.14.74,1.41.77.73,0,1.38-.65,1.95-1.96.52-1.18.77-2.15.77-2.91,0-1.73-.5-3.27-1.5-4.64Z"/>
    </g>
  </g>
</svg>