<?xml version="1.0" encoding="UTF-8"?>
<svg id="Layer_2" data-name="Layer 2" xmlns="http://www.w3.org/2000/svg" viewBox="0 0 143.72 150.35">
  <defs>
    <style>
      .cls-1 {
        fill: #fff;
      }
    </style>
  </defs>
  <g id="_12" data-name="12">
    <g>
      <path class="cls-1" d="M71.86,150.35c-.79,0-1.58-.12-2.34-.37l-39.73-12.92c-1.53-.5-2.84-1.45-3.79-2.75L1.44,100.51c-.94-1.3-1.44-2.84-1.44-4.45v-41.78c0-1.61.5-3.15,1.45-4.45L26.01,16.03c.95-1.3,2.26-2.25,3.79-2.75L69.53.37c1.53-.5,3.15-.5,4.68,0l39.73,12.92c1.53.5,2.84,1.45,3.79,2.75l24.56,33.8c.94,1.3,1.44,2.84,1.44,4.45v41.78c0,1.61-.5,3.15-1.45,4.45l-24.56,33.79c-.95,1.3-2.26,2.25-3.79,2.75l-39.73,12.91c-.77.25-1.55.37-2.34.37ZM71.87,5.05c-.26,0-.53.04-.78.12l-39.73,12.91c-.51.17-.95.48-1.26.92L5.54,52.8c-.31.43-.48.96-.48,1.48v41.78c0,.54.17,1.05.48,1.49l24.56,33.79c.32.43.75.75,1.26.92l39.73,12.92c.51.17,1.05.17,1.56,0l39.73-12.91c.51-.17.95-.48,1.26-.92l24.56-33.79c.32-.44.49-.95.49-1.48v-41.78c0-.54-.17-1.05-.48-1.48l-24.56-33.8c-.31-.43-.75-.75-1.26-.92l-39.73-12.91c-.25-.08-.52-.12-.78-.12Z"/>
      <path class="cls-1" d="M99.95,106.7l16.26-44.03,20.73-8.65-21.94,5.21c-.57.14-1.09.43-1.5.84-.38.38-.66.86-.81,1.38l-12.74,45.24Z"/>
      <path class="cls-1" d="M100.35,111.28c-.3-.5-.74-.9-1.26-1.17-.48-.25-1.02-.36-1.56-.34l-47.08,1.86,47.01,1.86,14.62,17.05-11.73-19.25Z"/>
      <path class="cls-1" d="M66.78,33.81l-38.14,25.4-21.86-5.19,20.82,8.68c.54.22,1.13.3,1.71.2.53-.08,1.04-.31,1.46-.64l36.01-28.45Z"/>
      <path class="cls-1" d="M30.51,65.86l12.82,45.49-11.98,19.58,14.98-17.51c.38-.44.63-.98.72-1.56.08-.53.03-1.08-.16-1.59l-16.38-44.41Z"/>
      <path class="cls-1" d="M70.05,29.23c-.05.58.07,1.17.33,1.69.25.48.61.89,1.06,1.19l38.51,25.68-36.26-28.65-1.82-22.4-1.82,22.48Z"/>
      <path class="cls-1" d="M75.36,85.61c-.91.82-2.32,1.73-4.23,2.73-2.3,1.21-3.79,1.82-4.45,1.82-.42-.21-.65-.53-.68-.95.12-.18.21-.29.27-.32,2.91-2,4.07-2.49,5.77-4.82.63-.86,1.21-1.77,1.68-2.73l1.09-3.18h-.41c-.15,0-1.08.67-2.77,2-1.64,1.33-2.64,2.02-3,2.05-1.55,0-3.08-1.08-4.59-3.23-1.36-1.94-2.05-3.76-2.05-5.45,0-1.91,1.12-4.35,3.36-7.32,2.36-3.09,4.45-4.64,6.27-4.64.15,0,.71.36,1.68,1.09,7.34,5.34,9.33,16.36,2.05,22.95ZM70,66.61c-.55-.48-.94-.76-1.18-.82-.58,0-1.18.65-1.82,1.95-.55,1.15-.82,2.08-.82,2.77,0,3.03,1.26,5.11,3.73,6.36.58.29.97.45,1.18.45.74,0,3.73-1.18,3.73-1.82.06-3.06-1.55-6.02-4.82-8.91Z"/>
    </g>
  </g>
</svg>