<?xml version="1.0" encoding="UTF-8"?>
<svg id="Layer_2" data-name="Layer 2" xmlns="http://www.w3.org/2000/svg" viewBox="0 0 143.72 150.35">
  <defs>
    <style>
      .cls-1 {
        fill: #fff;
      }
    </style>
  </defs>
  <g id="_12" data-name="12">
    <g>
      <path class="cls-1" d="M71.86,150.35c-.79,0-1.58-.12-2.34-.37l-39.73-12.91c-1.53-.5-2.84-1.45-3.79-2.75L1.44,100.51c-.95-1.3-1.44-2.84-1.44-4.45v-41.78c0-1.61.5-3.15,1.45-4.45L26.01,16.03c.95-1.3,2.26-2.25,3.79-2.75L69.53.37c1.53-.5,3.15-.5,4.68,0l39.73,12.92c1.53.5,2.84,1.45,3.79,2.75l24.56,33.8c.95,1.3,1.45,2.84,1.45,4.45v41.78c0,1.61-.5,3.15-1.45,4.45l-24.55,33.79c-.95,1.3-2.26,2.25-3.79,2.75l-39.73,12.91c-.77.25-1.55.37-2.34.37ZM71.87,5.05c-.26,0-.53.04-.78.12l-39.73,12.91c-.51.17-.95.48-1.26.92L5.54,52.8c-.32.44-.49.95-.49,1.48v41.78c0,.54.17,1.05.48,1.49l24.56,33.79c.32.43.75.75,1.26.92l39.73,12.91c.51.17,1.05.17,1.56,0l39.73-12.91c.51-.17.95-.48,1.26-.92l24.56-33.79c.31-.43.49-.96.49-1.49v-41.78c0-.54-.17-1.05-.48-1.48l-24.56-33.8c-.32-.43-.75-.75-1.26-.92l-39.73-12.92c-.26-.08-.52-.12-.78-.12Z"/>
      <path class="cls-1" d="M99.95,106.7l16.26-44.03,20.73-8.65-21.94,5.21c-.57.14-1.09.43-1.5.84-.38.38-.66.86-.81,1.38l-12.74,45.24Z"/>
      <path class="cls-1" d="M100.35,111.27c-.3-.5-.74-.9-1.26-1.17-.48-.25-1.02-.36-1.56-.34l-47.08,1.86,47.01,1.86,14.62,17.05-11.73-19.26Z"/>
      <path class="cls-1" d="M66.78,33.81l-38.14,25.4-21.86-5.19,20.82,8.68c.54.22,1.13.3,1.71.2.53-.08,1.04-.31,1.46-.64l36.01-28.45Z"/>
      <path class="cls-1" d="M30.51,65.86l12.82,45.49-11.98,19.58,14.98-17.51c.38-.44.63-.98.72-1.56.08-.53.03-1.08-.16-1.59l-16.38-44.41Z"/>
      <path class="cls-1" d="M70.05,29.23c-.05.58.07,1.17.33,1.69.25.48.61.89,1.06,1.19l38.51,25.68-36.26-28.65-1.82-22.4-1.82,22.48Z"/>
      <path class="cls-1" d="M77.45,87.16c-2.79,2.27-4.74,3.41-5.86,3.41s-3.04-1.09-5.77-3.27c-2.73-2.18-4.09-3.79-4.09-4.82s.79-2.18,2.36-3.36l3.64-2.73-3.27-2.68c-1.46-1.18-2.18-2.21-2.18-3.09s1.32-2.39,3.95-4.64c2.7-2.24,4.48-3.36,5.36-3.36,1.03,0,2.85,1.11,5.46,3.32,2.64,2.24,3.95,3.8,3.95,4.68,0,1.42-3.08,3.81-4.77,5.27,0,.75,5.41,3.14,5.41,6.23,0,1.03-1.39,2.71-4.18,5.04ZM69.63,77.88c-.33,0-.88.41-1.64,1.23-.73.73-1.12,1.29-1.18,1.68,0,.64,1.03,1.67,3.09,3.09l4,2.68c.27,0,.77-.36,1.5-1.09.76-.73,1.14-1.24,1.14-1.55,0-.94-6.4-6.04-6.91-6.04ZM73.17,69.02c-1.97-1.76-3.15-2.64-3.55-2.64-.24,0-.68.36-1.32,1.09-.64.73-.95,1.23-.95,1.5,0,.51,6.09,5.13,6.91,5.64,1.47-1.65,1.95-2.12,1.95-2.5,0-.33-1.02-1.36-3.05-3.09Z"/>
    </g>
  </g>
</svg>