<?xml version="1.0" encoding="UTF-8"?>
<svg id="Layer_2" data-name="Layer 2" xmlns="http://www.w3.org/2000/svg" viewBox="0 0 138.71 157.82">
  <defs>
    <style>
      .cls-1 {
        fill: #fff;
      }
    </style>
  </defs>
  <g id="_20" data-name="20">
    <g>
      <path class="cls-1" d="M134.93,36.68L73.15,1.01c-2.34-1.35-5.24-1.35-7.58,0L3.79,36.68C1.45,38.03,0,40.54,0,43.24v71.34c0,2.7,1.45,5.21,3.79,6.56l61.78,35.67c1.17.67,2.48,1.01,3.79,1.01,1.31,0,2.62-.34,3.79-1.01l61.78-35.67c2.34-1.35,3.79-3.86,3.79-6.56V43.24c0-2.7-1.45-5.21-3.79-6.56ZM133.66,114.58c0,.9-.48,1.74-1.26,2.19l-61.78,35.67c-.78.45-1.75.45-2.53,0L6.31,116.77c-.78-.45-1.26-1.29-1.26-2.19V43.24c0-.9.49-1.74,1.26-2.19L68.1,5.38c.39-.22.83-.34,1.26-.34s.87.11,1.26.34l61.78,35.67c.78.45,1.26,1.29,1.26,2.19v71.34Z"/>
      <path class="cls-1" d="M68.63,24.14l48.33,80.59S81.25,40.44,72.58,24.84l57.69,16.35-59.45-20.07-1.47-15.04-1.46,15.05L6.95,42.22c.06-.02,52.78-15.46,61.69-18.08Z"/>
      <polygon class="cls-1" points="121.97 109.6 132.16 43.39 118.81 109.58 70.13 150.86 120.55 112.19 132.23 115.74 121.97 109.6"/>
      <path class="cls-1" d="M63.71,32.07S28.27,91.04,19.19,106.18L6.02,43.83l10.72,65.77-10.78,6.06,12.17-3.5,50.58,38.7s-41.02-34.7-48.23-40.79L63.71,32.07Z"/>
      <path class="cls-1" d="M25.48,110.43c29.29,1.31,58.62,1.3,87.92,0-29.3-1.3-58.63-1.31-87.92,0Z"/>
      <path class="cls-1" d="M74.31,90.9c-2.79,2.27-4.74,3.41-5.86,3.41s-3.05-1.09-5.77-3.27c-2.73-2.18-4.09-3.79-4.09-4.82s.79-2.18,2.36-3.36l3.64-2.73-3.27-2.68c-1.45-1.18-2.18-2.21-2.18-3.09s1.32-2.39,3.95-4.64c2.7-2.24,4.48-3.36,5.36-3.36,1.03,0,2.85,1.11,5.45,3.32,2.64,2.24,3.95,3.8,3.95,4.68,0,1.42-3.08,3.81-4.77,5.27,0,.74,5.41,3.15,5.41,6.23,0,1.03-1.39,2.71-4.18,5.05ZM66.49,81.62c-.33,0-.88.41-1.64,1.23-.73.73-1.12,1.29-1.18,1.68,0,.64,1.03,1.67,3.09,3.09l4,2.68c.27,0,.77-.36,1.5-1.09.76-.73,1.14-1.24,1.14-1.55,0-.93-6.38-6.04-6.91-6.04ZM70.04,72.76c-1.97-1.76-3.15-2.64-3.55-2.64-.24,0-.68.36-1.32,1.09-.64.73-.95,1.23-.95,1.5,0,.51,6.09,5.13,6.91,5.64,1.47-1.65,1.95-2.12,1.95-2.5,0-.33-1.02-1.36-3.05-3.09Z"/>
    </g>
  </g>
</svg>