<?xml version="1.0" encoding="UTF-8"?>
<svg id="Layer_2" data-name="Layer 2" xmlns="http://www.w3.org/2000/svg" viewBox="0 0 138.71 157.82">
  <defs>
    <style>
      .cls-1 {
        fill: #fff;
      }
    </style>
  </defs>
  <g id="_20" data-name="20">
    <g>
      <path class="cls-1" d="M134.93,36.68L73.15,1.01c-2.34-1.35-5.24-1.35-7.58,0L3.79,36.68C1.45,38.03,0,40.54,0,43.24v71.34c0,2.7,1.45,5.21,3.79,6.56l61.78,35.67c1.17.67,2.48,1.01,3.79,1.01,1.31,0,2.62-.34,3.79-1.01l61.78-35.67c2.34-1.35,3.79-3.86,3.79-6.56V43.24c0-2.7-1.45-5.21-3.79-6.56ZM133.66,114.58c0,.9-.48,1.74-1.26,2.19l-61.78,35.67c-.78.45-1.75.45-2.53,0L6.31,116.77c-.78-.45-1.26-1.29-1.26-2.19V43.24c0-.9.49-1.74,1.26-2.19L68.1,5.39c.39-.22.83-.34,1.26-.34s.87.11,1.26.34l61.78,35.67c.78.45,1.26,1.29,1.26,2.19v71.34Z"/>
      <path class="cls-1" d="M68.63,24.14l48.33,80.59S81.25,40.44,72.58,24.84l57.69,16.35-59.45-20.07-1.47-15.04-1.46,15.05L6.95,42.22c.06-.02,52.78-15.46,61.69-18.08Z"/>
      <polygon class="cls-1" points="121.97 109.6 132.16 43.39 118.81 109.58 70.13 150.86 120.55 112.19 132.23 115.74 121.97 109.6"/>
      <path class="cls-1" d="M63.71,32.07S28.27,91.05,19.19,106.18L6.02,43.83l10.72,65.77-10.78,6.06,12.17-3.5,50.58,38.7s-41.02-34.7-48.23-40.79L63.71,32.07Z"/>
      <path class="cls-1" d="M25.48,110.43c29.29,1.31,58.62,1.3,87.92,0-29.3-1.3-58.63-1.31-87.92,0Z"/>
      <path class="cls-1" d="M54.76,95.97c1-3.39,1.5-7.15,1.5-11.27,0-3.06-.09-5.08-.27-6.04-.24-1.3-.97-3.15-2.18-5.55l7.5-4.77h.23c-.26,13.39-.67,19.76.59,27.64h-7.36Z"/>
      <path class="cls-1" d="M81.3,73.61h-9.41c-.88,1.12-1.32,2.17-1.32,3.14,1.18.45,4.12.98,5.36,1.18,6.02.98,9.05,3.49,9.05,7.64,0,1.85-1.46,3.96-4.36,6.36-1.97,1.63-4.29,3.09-6.95,4.36l-9.09-6.18c.85-1.03,3.02-2.65,4.23-3.23l8,5.18c1.29-.34,2.53-1.76,2.98-3.02,1.16-3.28-1.81-5.04-5.16-6.02-2.52-.73-5.08-1.09-7.68-1.09,0-1.15-.29-.12,2.27-7.36.9-3.24.99-3.96,2.18-6.27,5.25,0,11.97.72,13.91.05v.41c0,3.24-1.33,4.86-4,4.86Z"/>
    </g>
  </g>
</svg>