<?xml version="1.0" encoding="UTF-8"?>
<svg id="Layer_2" data-name="Layer 2" xmlns="http://www.w3.org/2000/svg" viewBox="0 0 138.71 157.82">
  <defs>
    <style>
      .cls-1 {
        fill: #fff;
      }
    </style>
  </defs>
  <g id="_20" data-name="20">
    <g>
      <path class="cls-1" d="M3.79,121.14l61.78,35.67c1.17.67,2.48,1.01,3.79,1.01,1.31,0,2.62-.34,3.79-1.01l61.78-35.67c2.34-1.35,3.79-3.86,3.79-6.56V43.24c0-2.7-1.45-5.21-3.79-6.56L73.15,1.01c-2.34-1.35-5.24-1.35-7.58,0L3.79,36.68C1.45,38.03,0,40.54,0,43.24v71.34c0,2.7,1.45,5.21,3.79,6.56ZM5.05,43.24c0-.9.48-1.74,1.26-2.19L68.1,5.38c.39-.22.83-.34,1.26-.34s.87.11,1.26.34l61.78,35.67c.78.45,1.26,1.29,1.26,2.19v71.34c0,.9-.49,1.74-1.26,2.19l-61.78,35.67c-.78.45-1.75.45-2.53,0L6.31,116.77c-.78-.45-1.26-1.29-1.26-2.19V43.24Z"/>
      <path class="cls-1" d="M68.63,24.14l48.33,80.59S81.25,40.44,72.58,24.84l57.69,16.35-59.45-20.07-1.47-15.04-1.46,15.05L6.95,42.22c.06-.02,52.78-15.46,61.69-18.08Z"/>
      <path class="cls-1" d="M25.48,110.43c29.29,1.31,58.62,1.3,87.92,0-29.3-1.3-58.63-1.31-87.92,0Z"/>
      <path class="cls-1" d="M18.13,112.16l50.58,38.7s-41.02-34.7-48.23-40.79L63.71,32.07S28.27,91.04,19.19,106.18L6.02,43.83l10.72,65.77-10.78,6.06,12.17-3.5Z"/>
      <polygon class="cls-1" points="118.81 109.58 70.13 150.86 120.55 112.19 132.23 115.74 121.97 109.6 132.16 43.39 118.81 109.58"/>
      <path class="cls-1" d="M74.87,90.26c-2.58,2.67-4.76,4-6.55,4-1.55,0-3.5-1.53-5.86-4.59-2.24-2.97-3.36-5.29-3.36-6.95v-3.68c0-4.34,4.98-9.02,8.59-11.41,2.33-1.58,4.38-2.36,6.14-2.36l.82.77v.5c-1.67.54-3.71,2.02-6.14,4.41-2.73,2.7-4.03,4.79-3.91,6.27l.05.55c.92-.28,5.95-4.14,6.41-4.14,1.94,0,3.76,1.03,5.45,3.09,1.58,1.94,2.36,3.94,2.36,6,0,2.24-1.33,4.76-4,7.55ZM72.69,80.71c-1.09-1.51-2.49-2.27-4.18-2.27-.91,0-1.71.21-2.41.64-.85.49-1.27,1.15-1.27,2,0,3.23,2.67,6.52,5.23,8.36.67.48,1.14.74,1.41.77.73,0,1.38-.65,1.95-1.95.52-1.18.77-2.15.77-2.91,0-1.73-.5-3.27-1.5-4.64Z"/>
    </g>
  </g>
</svg>