<?xml version="1.0" encoding="UTF-8"?>
<svg id="Layer_2" data-name="Layer 2" xmlns="http://www.w3.org/2000/svg" viewBox="0 0 138.71 157.82">
  <defs>
    <style>
      .cls-1 {
        fill: #fff;
      }
    </style>
  </defs>
  <g id="_20" data-name="20">
    <g>
      <path class="cls-1" d="M138.71,114.58V43.24c0-2.7-1.45-5.21-3.79-6.56L73.15,1.01c-2.34-1.35-5.24-1.35-7.57,0L3.79,36.68C1.45,38.03,0,40.55,0,43.24v71.34c0,2.7,1.45,5.21,3.79,6.56l61.78,35.67c1.17.67,2.48,1.01,3.79,1.01s2.62-.34,3.79-1.01l61.78-35.67c2.34-1.35,3.79-3.86,3.79-6.56ZM133.66,114.58c0,.9-.48,1.74-1.26,2.19l-61.78,35.67c-.78.45-1.75.45-2.53,0L6.31,116.77c-.78-.45-1.26-1.29-1.26-2.19V43.24c0-.9.49-1.74,1.26-2.19L68.1,5.39c.78-.45,1.75-.45,2.53,0l61.78,35.67c.78.45,1.26,1.29,1.26,2.19v71.34Z"/>
      <path class="cls-1" d="M68.63,24.14l48.33,80.59S81.25,40.44,72.58,24.84l57.69,16.35-59.45-20.07-1.47-15.04-1.46,15.05L6.95,42.22c.06-.02,52.78-15.46,61.69-18.08Z"/>
      <polygon class="cls-1" points="121.97 109.6 132.16 43.39 118.81 109.58 70.13 150.86 120.55 112.19 132.23 115.74 121.97 109.6"/>
      <path class="cls-1" d="M63.71,32.07S28.27,91.05,19.19,106.18L6.02,43.83l10.72,65.77-10.78,6.06,12.17-3.5,50.58,38.7s-41.02-34.7-48.23-40.79L63.71,32.07Z"/>
      <path class="cls-1" d="M25.48,110.43c29.29,1.31,58.62,1.3,87.92,0-29.3-1.3-58.63-1.31-87.92,0Z"/>
      <path class="cls-1" d="M56.53,95.97c1-3.39,1.5-7.15,1.5-11.27,0-3.06-.09-5.08-.27-6.04-.24-1.3-.97-3.15-2.18-5.55l7.5-4.77h.23c-.26,13.39-.67,19.76.59,27.64h-7.36Z"/>
      <path class="cls-1" d="M79.12,91.43c-.91.82-2.32,1.73-4.23,2.73-2.3,1.21-3.79,1.82-4.45,1.82-.42-.21-.65-.53-.68-.95.12-.18.21-.29.27-.32,2.91-2,4.07-2.49,5.77-4.82.63-.86,1.21-1.77,1.68-2.73l1.09-3.18h-.41c-.15,0-1.08.67-2.77,2-1.64,1.33-2.64,2.02-3,2.05-1.55,0-3.08-1.08-4.59-3.23-1.36-1.94-2.05-3.76-2.05-5.45,0-1.91,1.12-4.35,3.36-7.32,2.36-3.09,4.45-4.64,6.27-4.64.15,0,.71.36,1.68,1.09,7.34,5.34,9.33,16.36,2.05,22.95ZM73.76,72.43c-.55-.48-.94-.76-1.18-.82-.58,0-1.18.65-1.82,1.95-.55,1.15-.82,2.08-.82,2.77,0,3.03,1.26,5.11,3.73,6.36.58.29.97.45,1.18.45.74,0,3.73-1.18,3.73-1.82.06-3.06-1.55-6.02-4.82-8.91Z"/>
    </g>
  </g>
</svg>