<?xml version="1.0" encoding="UTF-8"?>
<svg id="Layer_2" data-name="Layer 2" xmlns="http://www.w3.org/2000/svg" viewBox="0 0 138.71 157.82">
  <defs>
    <style>
      .cls-1 {
        fill: #fff;
      }
    </style>
  </defs>
  <g id="_20" data-name="20">
    <g>
      <path class="cls-1" d="M134.93,36.68L73.15,1.01c-2.34-1.35-5.24-1.35-7.58,0L3.79,36.68C1.45,38.03,0,40.54,0,43.24v71.34c0,2.7,1.45,5.21,3.79,6.56l61.78,35.67c1.17.67,2.48,1.01,3.79,1.01,1.31,0,2.62-.34,3.79-1.01l61.78-35.67c2.34-1.35,3.79-3.86,3.79-6.56V43.24c0-2.7-1.45-5.21-3.79-6.56ZM133.66,114.58c0,.9-.48,1.74-1.26,2.19l-61.78,35.67c-.78.45-1.75.45-2.53,0L6.31,116.77c-.78-.45-1.26-1.29-1.26-2.19V43.24c0-.9.49-1.74,1.26-2.19L68.1,5.39c.39-.22.83-.34,1.26-.34s.87.11,1.26.34l61.78,35.67c.78.45,1.26,1.29,1.26,2.19v71.34Z"/>
      <path class="cls-1" d="M68.63,24.14l48.33,80.59S81.25,40.44,72.58,24.84l57.69,16.35-59.45-20.07-1.47-15.04-1.46,15.05L6.95,42.22c.06-.02,52.78-15.46,61.69-18.08Z"/>
      <polygon class="cls-1" points="121.97 109.6 132.16 43.39 118.81 109.58 70.13 150.86 120.55 112.19 132.23 115.74 121.97 109.6"/>
      <path class="cls-1" d="M63.71,32.07S28.27,91.05,19.19,106.18L6.02,43.83l10.72,65.77-10.78,6.06,12.17-3.5,50.58,38.7s-41.02-34.7-48.23-40.79L63.71,32.07Z"/>
      <path class="cls-1" d="M25.48,110.43c29.29,1.31,58.62,1.3,87.92,0-29.3-1.3-58.63-1.31-87.92,0Z"/>
      <path class="cls-1" d="M55.05,95.97c1-3.39,1.5-7.15,1.5-11.27,0-3.06-.09-5.08-.27-6.04-.24-1.3-.97-3.15-2.18-5.55l7.5-4.77h.23c-.26,13.39-.67,19.76.59,27.64h-7.36Z"/>
      <path class="cls-1" d="M81.73,93.06c-2.06,1.94-4.41,2.91-7.05,2.91-1.91,0-4.05-.77-6.41-2.32-2.45-1.64-3.68-3.41-3.68-5.32h1c2.21,2.18,4.61,3.27,7.18,3.27,1.33,0,2.62-.48,3.86-1.45,1.21-1,1.82-2.18,1.82-3.55,0-1.61-.77-2.72-2.32-3.32-.79-.31-2.27-.45-4.45-.45v-2.41c2.48,0,6.14-.78,6.14-3.27,0-.88-.62-1.59-1.86-2.14-2.36-1.07-4.83-.8-7.18.27v-.55c0-.51.41-1.73,1.23-3.64,1-2.3,1.92-3.45,2.77-3.45,1.88,0,3.94.82,6.18,2.45,2.33,1.73,3.5,3.52,3.5,5.36,0,.76-.33,1.61-1,2.54l-1.55,2.27,3.18,2.5c1.18.97,1.77,2.12,1.77,3.46,0,2.61-1.05,4.88-3.14,6.82Z"/>
    </g>
  </g>
</svg>