<?xml version="1.0" encoding="UTF-8"?>
<svg id="Layer_2" data-name="Layer 2" xmlns="http://www.w3.org/2000/svg" viewBox="0 0 138.71 157.82">
  <defs>
    <style>
      .cls-1 {
        fill: #fff;
      }
    </style>
  </defs>
  <g id="_20" data-name="20">
    <g>
      <path class="cls-1" d="M3.79,121.14l61.78,35.67c1.17.67,2.48,1.01,3.79,1.01s2.62-.34,3.79-1.01l61.78-35.67c2.34-1.35,3.79-3.86,3.79-6.56V43.24c0-2.7-1.45-5.21-3.79-6.56L73.15,1.01c-2.34-1.35-5.24-1.35-7.58,0L3.79,36.68C1.45,38.03,0,40.54,0,43.24v71.34c0,2.7,1.45,5.21,3.79,6.56ZM5.05,43.24c0-.9.48-1.74,1.26-2.19L68.1,5.38c.39-.22.83-.34,1.26-.34s.87.11,1.26.34l61.78,35.67c.78.45,1.26,1.29,1.26,2.19v71.34c0,.9-.49,1.74-1.26,2.19l-61.78,35.67c-.78.45-1.75.45-2.53,0L6.31,116.77c-.78-.45-1.26-1.29-1.26-2.19V43.24Z"/>
      <path class="cls-1" d="M68.63,24.14l48.33,80.59S81.25,40.44,72.58,24.84l57.69,16.35-59.45-20.07-1.47-15.04-1.46,15.05L6.95,42.22c.06-.02,52.78-15.46,61.69-18.08Z"/>
      <path class="cls-1" d="M25.48,110.43c29.29,1.31,58.62,1.3,87.92,0-29.3-1.3-58.63-1.31-87.92,0Z"/>
      <path class="cls-1" d="M18.13,112.16l50.58,38.7s-41.02-34.7-48.23-40.79L63.71,32.07S28.27,91.04,19.19,106.18L6.02,43.83l10.72,65.77-10.78,6.06,12.17-3.5Z"/>
      <polygon class="cls-1" points="118.81 109.58 70.13 150.86 120.55 112.19 132.23 115.74 121.97 109.6 132.16 43.39 118.81 109.58"/>
      <path class="cls-1" d="M76.96,82.9l-2.27.64-.18,3.73c-.15,2.36.03,4.36.55,6h-5.27l-.09-9.5-13.45.24,17.41-17.69h1.05v13.73h2.45l-.18,2.86ZM62.72,81.06l6.97-.35.45-7.05-7.42,7.39Z"/>
    </g>
  </g>
</svg>