<?xml version="1.0" encoding="UTF-8"?>
<svg id="Layer_2" data-name="Layer 2" xmlns="http://www.w3.org/2000/svg" viewBox="0 0 138.71 157.82">
  <defs>
    <style>
      .cls-1 {
        fill: #fff;
      }
    </style>
  </defs>
  <g id="_20" data-name="20">
    <g>
      <path class="cls-1" d="M134.93,36.68L73.15,1.01c-2.34-1.35-5.24-1.35-7.57,0L3.79,36.68C1.45,38.03,0,40.55,0,43.24v71.34c0,2.7,1.45,5.21,3.79,6.56l61.78,35.67c1.17.67,2.48,1.01,3.79,1.01s2.62-.34,3.79-1.01l61.78-35.67c2.34-1.35,3.79-3.86,3.79-6.56V43.24c0-2.7-1.45-5.21-3.79-6.56ZM133.66,114.58c0,.9-.48,1.74-1.26,2.19l-61.78,35.67c-.78.45-1.75.45-2.53,0L6.31,116.77c-.78-.45-1.26-1.29-1.26-2.19V43.24c0-.9.49-1.74,1.26-2.19L68.1,5.39c.78-.45,1.75-.45,2.53,0l61.78,35.67c.78.45,1.26,1.29,1.26,2.19v71.34Z"/>
      <path class="cls-1" d="M68.63,24.14l48.33,80.59S81.25,40.44,72.59,24.84l57.69,16.35-59.45-20.07-1.47-15.04-1.46,15.05L6.95,42.22c.06-.02,52.78-15.46,61.69-18.08Z"/>
      <polygon class="cls-1" points="121.97 109.6 132.16 43.39 118.81 109.58 70.13 150.86 120.55 112.19 132.23 115.74 121.97 109.6"/>
      <path class="cls-1" d="M63.71,32.07S28.27,91.05,19.19,106.18L6.02,43.83l10.72,65.77-10.78,6.06,12.17-3.5,50.58,38.7s-41.02-34.7-48.23-40.79L63.71,32.07Z"/>
      <path class="cls-1" d="M25.48,110.43c29.29,1.31,58.62,1.3,87.92,0-29.3-1.3-58.63-1.31-87.92,0Z"/>
      <path class="cls-1" d="M63.31,95.84h-14.41v-1.14c2.39-1.9,5.15-4.99,7.14-7.32,3.32-3.89,5-6.62,5-8.23,0-2.42-1.64-3.64-4.91-3.64-1.55,0-3.06.42-4.55,1.27v-.73l2.23-4.45c1.15-2.24,2.09-3.36,2.82-3.36,2.51,0,4.74.79,6.68,2.36,2.09,1.7,3.14,3.76,3.14,6.18,0,5.55-5.78,9-9.68,12.91,1.53,0,1.24.07,6.27-.68,1.16-.17,4.67-.65,6.14-.48.12.02.27.04.45.07-3.15,4.82-5.26,7.23-6.32,7.23Z"/>
      <path class="cls-1" d="M87.44,90.38c-.9,1.16-2.8,2.56-5.68,4.23l-1.05.86c-.42.3-.83.47-1.23.5-2.52,0-4.59-1.88-6.23-5.64-1.3-3-1.95-5.94-1.95-8.82,0-5.33,2.55-9.45,7.59-12.45,1-.6,1.7-.94,2.09-1,2.24,0,4.27,2.09,6.09,6.27,1.51,3.54,2.27,6.58,2.27,9.09,0,2.97-.62,5.3-1.91,6.95ZM84.03,78.43c-1.91-2.33-3.91-3.5-6-3.5-2.6,0-4.32,1.99-4.32,4.68,0,2.03.94,4.15,2.82,6.36,1.85,2.18,3.8,3.27,5.86,3.27,2.91,0,4.36-1.42,4.36-4.27,0-2.12-.91-4.3-2.73-6.54Z"/>
    </g>
  </g>
</svg>