<?xml version="1.0" encoding="UTF-8"?>
<svg id="Layer_2" data-name="Layer 2" xmlns="http://www.w3.org/2000/svg" viewBox="0 0 134.86 123.06">
  <defs>
    <style>
      .cls-1 {
        fill: #fff;
      }
    </style>
  </defs>
  <g id="_4" data-name="4">
    <g>
      <path class="cls-1" d="M72.35,2.59c-1.63-1.86-4.07-2.81-6.53-2.55-2.46.27-4.64,1.72-5.83,3.89L.93,111.85c-1.28,2.34-1.23,5.21.13,7.5,1.36,2.29,3.85,3.71,6.52,3.71h119.71c4.18,0,7.58-3.4,7.58-7.58v-38.44c0-1.83-.66-3.6-1.87-4.98L72.35,2.59ZM129.8,115.49c0,1.39-1.13,2.52-2.52,2.52H7.57c-.89,0-1.72-.47-2.17-1.24-.45-.76-.47-1.72-.04-2.5L64.43,6.36c.4-.72,1.12-1.21,1.94-1.3.09-.01.18-.02.27-.02.72,0,1.42.31,1.9.87l60.64,69.47c.4.46.62,1.05.62,1.66v38.44Z"/>
      <path class="cls-1" d="M68.93,9.63s18.2,36.08,27.15,53.25c8.94,17.82,18.29,35.44,29.38,52.05-7.72-18.41-17.24-35.95-27.15-53.25-9.36-16.94-19.72-35.37-29.38-52.05Z"/>
      <path class="cls-1" d="M70.94,84.21h-16.01v-1.26c2.65-2.11,5.73-5.55,7.93-8.13,3.68-4.32,5.56-7.36,5.56-9.14,0-2.69-1.82-4.04-5.45-4.04-1.72,0-3.4.47-5.05,1.41v-.81l2.48-4.95c1.28-2.49,2.32-3.74,3.13-3.74,2.79,0,5.27.88,7.42,2.63,2.32,1.89,3.48,4.17,3.48,6.87,0,6.17-6.44,10.02-10.76,14.34,1.7,0,1.38.08,6.97-.76,1.93-.29,5.41-.77,7.32-.45-3.5,5.35-5.84,8.03-7.02,8.03Z"/>
    </g>
  </g>
</svg>