<?xml version="1.0" encoding="UTF-8"?>
<svg id="Layer_2" data-name="Layer 2" xmlns="http://www.w3.org/2000/svg" viewBox="0 0 134.86 123.06">
  <defs>
    <style>
      .cls-1 {
        fill: #fff;
      }
    </style>
  </defs>
  <g id="_4" data-name="4">
    <g>
      <path class="cls-1" d="M132.99,72.06L72.35,2.59c-1.63-1.86-4.06-2.81-6.53-2.55-2.46.27-4.64,1.72-5.83,3.89L.93,111.85c-1.28,2.34-1.23,5.21.13,7.5,1.36,2.29,3.85,3.71,6.52,3.71h119.71c4.18,0,7.58-3.4,7.58-7.58v-38.44c0-1.83-.66-3.6-1.87-4.98ZM129.8,115.49c0,1.39-1.13,2.52-2.53,2.52H7.57c-.89,0-1.72-.47-2.17-1.24-.45-.76-.47-1.72-.04-2.5L64.43,6.36c.4-.72,1.12-1.21,1.94-1.3.09-.01.18-.02.27-.02.72,0,1.42.31,1.9.87l60.64,69.47c.4.46.62,1.05.62,1.66v38.44Z"/>
      <path class="cls-1" d="M68.93,9.63s18.2,36.08,27.15,53.25c8.94,17.82,18.29,35.44,29.38,52.05-7.72-18.41-17.24-35.95-27.15-53.25-9.36-16.94-19.72-35.37-29.38-52.05Z"/>
      <path class="cls-1" d="M73.59,80.98c-2.29,2.16-4.9,3.23-7.83,3.23-2.12,0-4.49-.86-7.12-2.58-2.73-1.82-4.09-3.79-4.09-5.91h1.11c2.46,2.42,5.12,3.64,7.98,3.64,1.48,0,2.91-.54,4.29-1.62,1.35-1.11,2.02-2.42,2.02-3.94,0-1.78-.86-3.02-2.58-3.69-.87-.34-2.53-.5-4.95-.5v-2.68c2.76,0,6.82-.87,6.82-3.64,0-.98-.69-1.77-2.07-2.37-2.62-1.19-5.37-.89-7.98.3v-.61c0-.57.45-1.92,1.36-4.04,1.11-2.56,2.14-3.84,3.08-3.84,2.09,0,4.38.91,6.87,2.73,2.59,1.92,3.89,3.91,3.89,5.96,0,.84-.37,1.79-1.11,2.83l-1.72,2.52,3.54,2.78c1.31,1.08,1.97,2.36,1.97,3.84,0,2.9-1.16,5.42-3.48,7.58Z"/>
    </g>
  </g>
</svg>