<?xml version="1.0" encoding="UTF-8"?>
<svg id="Layer_2" data-name="Layer 2" xmlns="http://www.w3.org/2000/svg" viewBox="0 0 134.86 123.06">
  <defs>
    <style>
      .cls-1 {
        fill: #fff;
      }
    </style>
  </defs>
  <g id="_4" data-name="4">
    <g>
      <path class="cls-1" d="M72.35,2.59c-1.63-1.86-4.07-2.81-6.53-2.55-2.46.27-4.64,1.72-5.83,3.89L.92,111.85c-1.28,2.34-1.23,5.21.13,7.5,1.36,2.29,3.85,3.71,6.52,3.71h119.71c4.18,0,7.58-3.4,7.58-7.58v-38.44c0-1.83-.66-3.6-1.87-4.98L72.35,2.59ZM129.8,115.49c0,1.39-1.13,2.52-2.52,2.52H7.57c-.89,0-1.72-.47-2.17-1.24-.45-.76-.47-1.72-.04-2.5L64.43,6.36c.4-.72,1.12-1.21,1.94-1.3.09-.01.18-.02.27-.02.72,0,1.42.31,1.9.87l60.64,69.47c.4.46.62,1.05.62,1.66v38.44Z"/>
      <path class="cls-1" d="M68.93,9.63s18.2,36.08,27.15,53.25c8.94,17.82,18.29,35.44,29.38,52.05-7.72-18.41-17.24-35.95-27.15-53.25-9.36-16.94-19.72-35.37-29.38-52.05Z"/>
      <path class="cls-1" d="M74.22,72.64l-2.53.71-.2,4.14c-.17,2.63.03,4.85.61,6.67h-5.86l-.1-10.56-14.95.26,19.34-19.66h1.16v15.25h2.73l-.2,3.18ZM58.4,70.6l7.75-.38.5-7.83-8.25,8.21Z"/>
    </g>
  </g>
</svg>