<?xml version="1.0" encoding="UTF-8"?>
<svg id="Layer_2" data-name="Layer 2" xmlns="http://www.w3.org/2000/svg" viewBox="0 0 113.78 113.78">
  <defs>
    <style>
      .cls-1 {
        fill: #fff;
      }
    </style>
  </defs>
  <g id="_6" data-name="6">
    <g>
      <path class="cls-1" d="M106.21,0H15.83c-2.02,0-3.92.79-5.36,2.22L2.22,10.48c-1.43,1.43-2.22,3.33-2.22,5.36v90.37c0,4.18,3.4,7.58,7.58,7.58h90.37c2.02,0,3.93-.79,5.36-2.22l8.26-8.26c1.43-1.43,2.22-3.33,2.22-5.36V7.58c0-4.18-3.4-7.58-7.58-7.58ZM108.73,97.95c0,.66-.27,1.32-.74,1.79l-8.26,8.26c-.48.48-1.11.74-1.79.74H7.58c-1.39,0-2.53-1.13-2.53-2.53V15.83c0-.67.26-1.31.74-1.79L14.05,5.79c.48-.48,1.11-.74,1.79-.74h90.37c1.39,0,2.52,1.13,2.52,2.52v90.38Z"/>
      <polygon class="cls-1" points="99.55 12.17 8.91 13.74 98.49 15.29 100.04 104.55 101.61 14.23 107.11 6.67 99.55 12.17"/>
      <path class="cls-1" d="M54.72,76.75h-16.01v-1.26c2.65-2.11,5.73-5.55,7.93-8.13,3.69-4.32,5.56-7.36,5.56-9.14,0-2.69-1.82-4.04-5.46-4.04-1.72,0-3.4.47-5.05,1.41v-.81l2.47-4.95c1.28-2.49,2.32-3.74,3.13-3.74,2.79,0,5.27.88,7.42,2.63,2.32,1.89,3.48,4.17,3.48,6.87,0,6.17-6.43,10.02-10.76,14.34,1.7,0,1.38.08,6.97-.76,1.93-.29,5.41-.77,7.32-.45-3.5,5.35-5.84,8.03-7.02,8.03Z"/>
    </g>
  </g>
</svg>