<?xml version="1.0" encoding="UTF-8"?>
<svg id="Layer_2" data-name="Layer 2" xmlns="http://www.w3.org/2000/svg" viewBox="0 0 113.78 113.78">
  <defs>
    <style>
      .cls-1 {
        fill: #fff;
      }
    </style>
  </defs>
  <g id="_6" data-name="6">
    <g>
      <path class="cls-1" d="M106.21,0H15.83c-2.02,0-3.92.79-5.36,2.22L2.22,10.48c-1.43,1.43-2.22,3.33-2.22,5.36v90.37c0,4.18,3.4,7.58,7.58,7.58h90.37c2.02,0,3.93-.79,5.36-2.22l8.26-8.26c1.43-1.43,2.22-3.33,2.22-5.36V7.58c0-4.18-3.4-7.58-7.58-7.58ZM108.73,97.95c0,.66-.27,1.32-.74,1.79l-8.26,8.26c-.48.48-1.11.74-1.79.74H7.58c-1.39,0-2.53-1.13-2.53-2.53V15.83c0-.67.26-1.31.74-1.79L14.05,5.79c.47-.47,1.12-.74,1.79-.74h90.37c1.39,0,2.53,1.13,2.53,2.52v90.38Z"/>
      <polygon class="cls-1" points="99.55 12.17 8.91 13.74 98.49 15.29 100.04 104.55 101.61 14.23 107.11 6.67 99.55 12.17"/>
      <path class="cls-1" d="M58,73.51c-2.29,2.16-4.9,3.23-7.83,3.23-2.12,0-4.5-.86-7.12-2.58-2.73-1.82-4.09-3.79-4.09-5.91h1.11c2.46,2.42,5.12,3.64,7.98,3.64,1.48,0,2.91-.54,4.29-1.62,1.35-1.11,2.02-2.42,2.02-3.94,0-1.78-.86-3.02-2.58-3.69-.87-.34-2.53-.5-4.95-.5v-2.68c2.74,0,6.82-.86,6.82-3.64,0-.98-.69-1.77-2.07-2.37-2.62-1.19-5.37-.89-7.98.3v-.61c0-.57.45-1.92,1.36-4.04,1.11-2.56,2.14-3.84,3.08-3.84,2.09,0,4.38.91,6.87,2.73,2.59,1.92,3.89,3.91,3.89,5.96,0,.84-.37,1.79-1.11,2.83l-1.72,2.52,3.54,2.78c1.31,1.08,1.97,2.36,1.97,3.84,0,2.9-1.16,5.42-3.49,7.58Z"/>
    </g>
  </g>
</svg>