<?xml version="1.0" encoding="UTF-8"?>
<svg id="Layer_2" data-name="Layer 2" xmlns="http://www.w3.org/2000/svg" viewBox="0 0 113.78 113.78">
  <defs>
    <style>
      .cls-1 {
        fill: #fff;
      }
    </style>
  </defs>
  <g id="_6" data-name="6">
    <g>
      <path class="cls-1" d="M106.21,0H15.83c-2.02,0-3.92.79-5.36,2.22L2.22,10.48c-1.43,1.43-2.22,3.33-2.22,5.36v90.37c0,4.18,3.4,7.58,7.58,7.58h90.37c2.03,0,3.93-.79,5.36-2.22l8.26-8.26c1.43-1.43,2.22-3.33,2.22-5.36V7.58c0-4.18-3.4-7.58-7.58-7.58ZM108.73,97.95c0,.66-.27,1.32-.74,1.79l-8.26,8.26c-.47.47-1.12.74-1.79.74H7.58c-1.39,0-2.52-1.13-2.52-2.53V15.83c0-.67.26-1.31.74-1.79L14.05,5.79c.48-.48,1.11-.74,1.79-.74h90.37c1.39,0,2.53,1.13,2.53,2.52v90.38Z"/>
      <polygon class="cls-1" points="99.55 12.17 8.91 13.74 98.49 15.29 100.04 104.55 101.61 14.23 107.11 6.67 99.55 12.17"/>
      <path class="cls-1" d="M59.24,65.18l-2.53.71-.2,4.14c-.17,2.63.03,4.85.61,6.67h-5.86l-.1-10.56-14.95.26,19.34-19.66h1.16v15.25h2.73l-.2,3.18ZM43.41,63.14l7.75-.38.5-7.83-8.25,8.21Z"/>
    </g>
  </g>
</svg>