<?xml version="1.0" encoding="UTF-8"?>
<svg id="Layer_2" data-name="Layer 2" xmlns="http://www.w3.org/2000/svg" viewBox="0 0 113.78 113.78">
  <defs>
    <style>
      .cls-1 {
        fill: #fff;
      }
    </style>
  </defs>
  <g id="_6" data-name="6">
    <g>
      <path class="cls-1" d="M106.21,0H15.83c-2.02,0-3.92.79-5.36,2.22L2.22,10.48c-1.43,1.43-2.22,3.33-2.22,5.36v90.37c0,4.18,3.4,7.58,7.58,7.58h90.37c2.02,0,3.93-.79,5.36-2.22l8.26-8.26c1.43-1.43,2.22-3.33,2.22-5.36V7.58c0-4.18-3.4-7.58-7.58-7.58ZM108.73,97.95c0,.66-.27,1.32-.74,1.79l-8.26,8.26c-.48.48-1.11.74-1.79.74H7.58c-1.39,0-2.53-1.13-2.53-2.53V15.83c0-.67.26-1.31.74-1.79L14.05,5.79c.47-.47,1.12-.74,1.79-.74h90.37c1.39,0,2.53,1.13,2.53,2.52v90.38Z"/>
      <polygon class="cls-1" points="99.55 12.17 8.91 13.74 98.49 15.29 100.04 104.55 101.61 14.23 107.11 6.67 99.55 12.17"/>
      <path class="cls-1" d="M56.89,52.05h-10.45c-.98,1.25-1.46,2.41-1.46,3.49,1.3.5,4.59,1.09,5.96,1.31,6.69,1.09,10.05,3.87,10.05,8.49,0,2.05-1.62,4.4-4.85,7.07-2.19,1.81-4.76,3.43-7.73,4.85l-10.1-6.87c.95-1.14,3.36-2.95,4.7-3.58l8.89,5.76c1.44-.38,2.81-1.97,3.31-3.36,1.29-3.65-2.02-5.6-5.73-6.69-2.8-.81-5.64-1.21-8.54-1.21,0-1.31-.26-.31,2.52-8.18,1-3.6,1.1-4.4,2.42-6.97,5.83,0,13.3.8,15.45.05v.46c0,3.6-1.48,5.4-4.44,5.4Z"/>
    </g>
  </g>
</svg>