<?xml version="1.0" encoding="UTF-8"?>
<svg id="Layer_2" data-name="Layer 2" xmlns="http://www.w3.org/2000/svg" viewBox="0 0 113.78 113.78">
  <defs>
    <style>
      .cls-1 {
        fill: #fff;
      }
    </style>
  </defs>
  <g id="_6" data-name="6">
    <g>
      <path class="cls-1" d="M106.21,0H15.83c-2.02,0-3.92.79-5.36,2.22L2.22,10.48c-1.43,1.43-2.22,3.33-2.22,5.36v90.37c0,4.18,3.4,7.58,7.58,7.58h90.38c2.02,0,3.93-.79,5.36-2.22l8.26-8.26c1.43-1.43,2.22-3.33,2.22-5.36V7.58c0-4.18-3.4-7.58-7.58-7.58ZM108.73,97.95c0,.66-.27,1.32-.74,1.79l-8.26,8.26c-.47.47-1.12.74-1.79.74H7.58c-1.39,0-2.52-1.13-2.52-2.53V15.83c0-.67.26-1.31.74-1.79L14.05,5.79c.48-.48,1.11-.74,1.79-.74h90.37c1.39,0,2.53,1.13,2.53,2.52v90.38Z"/>
      <polygon class="cls-1" points="99.55 12.17 8.91 13.74 98.49 15.29 100.04 104.55 101.61 14.23 107.11 6.67 99.55 12.17"/>
      <path class="cls-1" d="M56.64,72.66c-2.86,2.96-5.29,4.44-7.27,4.44-1.72,0-3.89-1.7-6.51-5.1-2.49-3.3-3.74-5.88-3.74-7.73v-4.09c0-4.8,5.5-10,9.54-12.68,2.59-1.75,4.87-2.63,6.82-2.63l.91.86v.56c-1.85.61-4.12,2.24-6.82,4.9-3.03,3-4.48,5.32-4.34,6.97l.05.61c1.03-.32,6.61-4.6,7.12-4.6,2.15,0,4.17,1.15,6.06,3.43,1.75,2.16,2.63,4.38,2.63,6.67,0,2.49-1.48,5.29-4.44,8.38ZM54.21,62.05c-1.21-1.68-2.76-2.53-4.65-2.53-1.01,0-1.9.24-2.68.71-.94.54-1.41,1.28-1.41,2.22,0,3.57,2.95,7.23,5.81,9.29.74.54,1.26.83,1.57.86.81,0,1.53-.72,2.17-2.17.57-1.31.86-2.39.86-3.23,0-1.92-.56-3.64-1.67-5.15Z"/>
    </g>
  </g>
</svg>