<?xml version="1.0" encoding="UTF-8"?>
<svg id="Layer_2" data-name="Layer 2" xmlns="http://www.w3.org/2000/svg" viewBox="0 0 138.33 156.53">
  <defs>
    <style>
      .cls-1 {
        fill: #fff;
      }
    </style>
  </defs>
  <g id="_8" data-name="8">
    <g>
      <path class="cls-1" d="M135.7,54.88L74.11,1.82c-2.82-2.43-7.07-2.43-9.89,0L2.63,54.88c-1.67,1.44-2.63,3.53-2.63,5.74v52.78c0,2.7,1.45,5.21,3.79,6.56l61.59,35.56c1.17.67,2.48,1.01,3.79,1.01s2.62-.34,3.79-1.01l61.59-35.56c2.34-1.35,3.79-3.86,3.79-6.56v-52.78c0-2.21-.96-4.3-2.63-5.74ZM133.28,113.4c0,.9-.48,1.74-1.26,2.19l-61.59,35.56c-.78.45-1.75.45-2.52,0L6.31,115.59c-.78-.45-1.26-1.29-1.26-2.19v-52.78c0-.74.32-1.43.88-1.91L67.52,5.65c.48-.41,1.06-.62,1.65-.62s1.17.21,1.65.62l61.59,53.06c.56.48.88,1.18.88,1.91v52.78Z"/>
      <path class="cls-1" d="M11.83,116.32c38.2,1.74,76.48,1.73,114.68,0-38.2-1.73-76.48-1.74-114.68,0Z"/>
      <path class="cls-1" d="M67.93,7.4c-10.26,16.59-21.26,34.87-31.22,51.72-10.52,17.19-20.67,34.61-29.03,52.98,11.68-16.46,21.65-33.99,31.22-51.72,9.56-17.07,19.85-35.79,29.04-52.98Z"/>
      <path class="cls-1" d="M70.23,7.19c9.2,17.24,19.51,35.97,29.09,53.08,9.59,17.77,19.59,35.33,31.28,51.82-8.39-18.4-18.55-35.86-29.09-53.08-9.98-16.87-21.01-35.22-31.28-51.82Z"/>
      <path class="cls-1" d="M72.68,97.48h-16.01v-1.26c2.65-2.11,5.73-5.55,7.93-8.13,3.68-4.32,5.56-7.36,5.56-9.14,0-2.69-1.82-4.04-5.45-4.04-1.72,0-3.4.47-5.05,1.41v-.81l2.48-4.95c1.28-2.49,2.32-3.74,3.13-3.74,2.79,0,5.27.88,7.42,2.63,2.32,1.89,3.48,4.17,3.48,6.87,0,6.17-6.44,10.02-10.76,14.34,1.7,0,1.38.08,6.97-.76,1.93-.29,5.41-.77,7.32-.45-3.5,5.35-5.84,8.03-7.02,8.03Z"/>
    </g>
  </g>
</svg>