<?xml version="1.0" encoding="UTF-8"?>
<svg id="Layer_2" data-name="Layer 2" xmlns="http://www.w3.org/2000/svg" viewBox="0 0 138.33 156.53">
  <defs>
    <style>
      .cls-1 {
        fill: #fff;
      }
    </style>
  </defs>
  <g id="_8" data-name="8">
    <g>
      <path class="cls-1" d="M135.7,54.88L74.11,1.82c-2.82-2.43-7.07-2.43-9.89,0L2.63,54.88c-1.67,1.44-2.63,3.53-2.63,5.74v52.78c0,2.7,1.45,5.21,3.79,6.56l61.59,35.56c1.17.67,2.48,1.01,3.79,1.01s2.62-.34,3.79-1.01l61.59-35.56c2.34-1.35,3.79-3.86,3.79-6.56v-52.78c0-2.21-.96-4.3-2.63-5.74ZM133.28,113.4c0,.9-.48,1.74-1.26,2.19l-61.59,35.56c-.78.45-1.75.45-2.53,0L6.31,115.59c-.78-.45-1.26-1.29-1.26-2.19v-52.78c0-.74.32-1.43.88-1.91L67.52,5.65c.48-.41,1.06-.62,1.65-.62s1.17.21,1.65.62l61.59,53.06c.56.48.88,1.18.88,1.91v52.78Z"/>
      <path class="cls-1" d="M11.83,116.32c38.2,1.74,76.48,1.73,114.68,0-38.2-1.73-76.48-1.74-114.68,0Z"/>
      <path class="cls-1" d="M67.93,7.4c-10.26,16.59-21.26,34.87-31.22,51.72-10.52,17.19-20.67,34.61-29.03,52.98,11.68-16.46,21.65-33.99,31.22-51.72,9.56-17.07,19.85-35.79,29.04-52.98Z"/>
      <path class="cls-1" d="M70.23,7.19c9.2,17.24,19.51,35.97,29.09,53.08,9.59,17.77,19.59,35.33,31.28,51.82-8.39-18.4-18.55-35.86-29.09-53.08-9.98-16.87-21.01-35.22-31.28-51.82Z"/>
      <path class="cls-1" d="M75.33,94.25c-2.29,2.16-4.9,3.23-7.83,3.23-2.12,0-4.5-.86-7.12-2.58-2.73-1.82-4.09-3.79-4.09-5.91h1.11c2.46,2.42,5.12,3.64,7.98,3.64,1.48,0,2.91-.54,4.29-1.62,1.35-1.11,2.02-2.42,2.02-3.94,0-1.78-.86-3.02-2.58-3.69-.87-.34-2.53-.5-4.95-.5v-2.68c2.74,0,6.82-.86,6.82-3.64,0-.98-.69-1.77-2.07-2.37-2.62-1.19-5.37-.89-7.98.3v-.61c0-.57.45-1.92,1.36-4.04,1.11-2.56,2.14-3.84,3.08-3.84,2.09,0,4.38.91,6.87,2.73,2.59,1.92,3.89,3.91,3.89,5.96,0,.84-.37,1.79-1.11,2.83l-1.72,2.52,3.54,2.78c1.31,1.08,1.97,2.36,1.97,3.84,0,2.9-1.16,5.42-3.49,7.58Z"/>
    </g>
  </g>
</svg>