<?xml version="1.0" encoding="UTF-8"?>
<svg id="Layer_2" data-name="Layer 2" xmlns="http://www.w3.org/2000/svg" viewBox="0 0 138.33 156.53">
  <defs>
    <style>
      .cls-1 {
        fill: #fff;
      }
    </style>
  </defs>
  <g id="_8" data-name="8">
    <g>
      <path class="cls-1" d="M135.7,54.88L74.11,1.82c-2.82-2.43-7.07-2.43-9.89,0L2.63,54.88c-1.67,1.44-2.63,3.53-2.63,5.74v52.78c0,2.7,1.45,5.21,3.79,6.56l61.59,35.56c1.17.67,2.48,1.01,3.79,1.01s2.62-.34,3.79-1.01l61.59-35.56c2.34-1.35,3.79-3.86,3.79-6.56v-52.78c0-2.21-.96-4.3-2.63-5.74ZM133.28,113.4c0,.9-.48,1.74-1.26,2.19l-61.59,35.56c-.78.45-1.75.45-2.52,0L6.31,115.59c-.78-.45-1.26-1.29-1.26-2.19v-52.78c0-.74.32-1.43.88-1.91L67.52,5.65c.94-.81,2.36-.81,3.3,0l61.59,53.06c.56.48.88,1.18.88,1.91v52.78Z"/>
      <path class="cls-1" d="M11.83,116.32c38.2,1.74,76.48,1.73,114.68,0-38.2-1.73-76.48-1.74-114.68,0Z"/>
      <path class="cls-1" d="M67.93,7.39c-10.26,16.59-21.26,34.87-31.22,51.72-10.52,17.19-20.67,34.61-29.03,52.98,11.68-16.46,21.65-33.99,31.22-51.72,9.56-17.07,19.85-35.79,29.04-52.98Z"/>
      <path class="cls-1" d="M70.23,7.19c9.2,17.24,19.51,35.97,29.09,53.08,9.59,17.77,19.59,35.33,31.28,51.82-8.39-18.4-18.55-35.86-29.09-53.08-9.98-16.87-21.01-35.22-31.28-51.82Z"/>
      <path class="cls-1" d="M74.6,93.39c-2.86,2.96-5.29,4.44-7.27,4.44-1.72,0-3.89-1.7-6.52-5.1-2.49-3.3-3.74-5.88-3.74-7.73v-4.09c0-4.82,5.54-10.02,9.55-12.68,2.59-1.75,4.87-2.63,6.82-2.63l.91.86v.56c-1.85.61-4.12,2.24-6.82,4.9-3.03,3-4.48,5.32-4.34,6.97l.05.61c1.03-.32,6.61-4.6,7.12-4.6,2.15,0,4.17,1.15,6.06,3.43,1.75,2.16,2.63,4.38,2.63,6.67,0,2.49-1.48,5.29-4.44,8.38ZM72.17,82.78c-1.21-1.68-2.76-2.53-4.65-2.53-1.01,0-1.9.24-2.68.71-.94.54-1.41,1.28-1.41,2.22,0,3.58,2.97,7.24,5.81,9.29.74.54,1.26.83,1.57.86.81,0,1.53-.72,2.17-2.17.57-1.31.86-2.39.86-3.23,0-1.92-.56-3.64-1.67-5.15Z"/>
    </g>
  </g>
</svg>