<?xml version="1.0" encoding="UTF-8"?>
<svg id="Layer_2" data-name="Layer 2" xmlns="http://www.w3.org/2000/svg" viewBox="0 0 138.33 156.53">
  <defs>
    <style>
      .cls-1 {
        fill: #fff;
      }
    </style>
  </defs>
  <g id="_8" data-name="8">
    <g>
      <path class="cls-1" d="M135.7,54.88L74.11,1.82c-2.82-2.43-7.07-2.43-9.89,0L2.63,54.88c-1.67,1.44-2.63,3.53-2.63,5.74v52.78c0,2.7,1.45,5.21,3.79,6.56l61.59,35.56c1.17.67,2.48,1.01,3.79,1.01s2.62-.34,3.79-1.01l61.59-35.56c2.34-1.35,3.79-3.86,3.79-6.56v-52.78c0-2.21-.96-4.3-2.63-5.74ZM133.28,113.4c0,.9-.48,1.74-1.26,2.19l-61.59,35.56c-.78.45-1.75.45-2.53,0L6.31,115.59c-.78-.45-1.26-1.29-1.26-2.19v-52.78c0-.74.32-1.43.88-1.91L67.52,5.65c.94-.81,2.36-.81,3.3,0l61.59,53.06c.56.48.88,1.18.88,1.91v52.78Z"/>
      <path class="cls-1" d="M11.83,116.32c38.2,1.74,76.48,1.73,114.68,0-38.2-1.73-76.48-1.74-114.68,0Z"/>
      <path class="cls-1" d="M67.93,7.39c-10.26,16.59-21.26,34.87-31.22,51.72-10.52,17.19-20.67,34.61-29.03,52.98,11.68-16.46,21.65-33.99,31.22-51.72,9.56-17.07,19.85-35.79,29.04-52.98Z"/>
      <path class="cls-1" d="M70.23,7.19c9.2,17.24,19.51,35.97,29.09,53.08,9.59,17.77,19.59,35.33,31.28,51.82-8.39-18.4-18.55-35.86-29.09-53.08-9.98-16.87-21.01-35.22-31.28-51.82Z"/>
      <path class="cls-1" d="M64.65,97.13h-5.61v-.61l16.51-24.6c-.84-.2-1.51-.29-2.02-.25l-5.66.25c-2.26.09-4.58.48-6.44,1.72-.9.6-1.85,1.46-2.85,1.46v-1.31c0-.33.32-.95,1.06-2.42l.71-2.93c.23-.98.79-1.61,1.67-1.87.78-.23,4.35-.31,18.18-.4.74,0,1.11.25,1.11.76,0,.56-15.64,29.39-16.67,30.2Z"/>
    </g>
  </g>
</svg>