<?xml version="1.0" encoding="UTF-8"?>
<svg id="Layer_2" data-name="Layer 2" xmlns="http://www.w3.org/2000/svg" viewBox="0 0 138.33 156.53">
  <defs>
    <style>
      .cls-1 {
        fill: #fff;
      }
    </style>
  </defs>
  <g id="_8" data-name="8">
    <g>
      <path class="cls-1" d="M135.7,54.88L74.11,1.82c-2.82-2.43-7.07-2.43-9.89,0L2.63,54.88c-1.67,1.44-2.63,3.53-2.63,5.74v52.78c0,2.7,1.45,5.21,3.79,6.56l61.59,35.56c1.17.67,2.48,1.01,3.79,1.01s2.62-.34,3.79-1.01l61.59-35.55c2.34-1.35,3.79-3.86,3.79-6.56v-52.78c0-2.21-.96-4.3-2.63-5.74ZM133.28,113.4c0,.9-.48,1.74-1.26,2.19l-61.59,35.56c-.78.45-1.75.45-2.52,0L6.31,115.59c-.78-.45-1.26-1.29-1.26-2.19v-52.78c0-.74.32-1.43.88-1.91L67.52,5.65c.94-.81,2.36-.81,3.3,0l61.59,53.06c.56.48.88,1.18.88,1.91v52.78Z"/>
      <path class="cls-1" d="M11.83,116.32c38.2,1.74,76.48,1.73,114.68,0-38.2-1.73-76.48-1.74-114.68,0Z"/>
      <path class="cls-1" d="M67.93,7.39c-10.26,16.59-21.26,34.87-31.22,51.72-10.52,17.19-20.67,34.61-29.03,52.98,11.68-16.46,21.65-33.99,31.22-51.72,9.56-17.07,19.85-35.79,29.04-52.98Z"/>
      <path class="cls-1" d="M70.23,7.19c9.2,17.24,19.51,35.97,29.09,53.08,9.59,17.77,19.59,35.33,31.28,51.82-8.39-18.4-18.55-35.86-29.09-53.08-9.98-16.87-21.01-35.22-31.28-51.82Z"/>
      <path class="cls-1" d="M74.67,94.1c-3.1,2.53-5.27,3.79-6.51,3.79s-3.38-1.21-6.41-3.64c-3.03-2.42-4.55-4.21-4.55-5.35s.88-2.42,2.63-3.74l4.04-3.03-3.64-2.98c-1.62-1.31-2.42-2.46-2.42-3.43s1.46-2.66,4.39-5.15c3-2.49,4.98-3.74,5.96-3.74,1.14,0,3.16,1.23,6.06,3.69,2.93,2.49,4.39,4.23,4.39,5.2,0,1.58-3.42,4.23-5.3,5.86,0,.83,6.01,3.49,6.01,6.92,0,1.15-1.55,3.01-4.65,5.61ZM69.92,86.67c-2.32-1.92-3.64-2.88-3.94-2.88-.37,0-.98.45-1.82,1.36-.81.81-1.25,1.43-1.31,1.87,0,.71,1.14,1.85,3.43,3.43l4.45,2.98c.3,0,.86-.4,1.67-1.21.84-.81,1.26-1.38,1.26-1.72,0-.47-1.25-1.75-3.74-3.84ZM69.92,73.95c-2.19-1.95-3.5-2.93-3.94-2.93-.27,0-.76.4-1.46,1.21-.71.81-1.06,1.36-1.06,1.67,0,.24,1.14,1.26,3.43,3.08,2.02,1.62,3.43,2.68,4.24,3.18,1.47-1.65,2.17-2.33,2.17-2.78,0-.37-1.13-1.51-3.38-3.43Z"/>
    </g>
  </g>
</svg>